#Comment line ignore any data following # character 
#Hierarchical Translation and Rotation (.htr) file 
[Header]	
#Header keywords are followed by a single value 
FileType HTR		#Single word string
DataType HTRS		#Translation followed by rotation and scale data
FileVersion 1		#integer
NumSegments 64		#integer
NumFrames 3		#integer
DataFrameRate 30		#integer, data frame rate in this file
EulerRotationOrder ZYX
CalibrationUnits mm
RotationUnits Degrees
GlobalAxisofGravity Y
BoneLengthAxis Y
ScaleFactor 1.00
[SegmentNames&Hierarchy]
#CHILD	PARENT
Pinger_Root GLOBAL
Pelvis Pinger_Root
L_Hip Pelvis
R_Hip Pelvis
Rear_Leg01 Pelvis
Spine1 Pelvis
L_Leg01 L_Hip
L_Leg02 L_Leg01
L_Leg03 L_Leg02
L_Foot L_Leg03
L_Toe1_01 L_Foot
L_Toe2_01 L_Foot
L_Toe3_01 L_Foot
planeAlignerLeft L_Foot
L_Toe1_02 L_Toe1_01
L_Toe1_03 L_Toe1_02
L_Toe2_02 L_Toe2_01
L_Toe2_03 L_Toe2_02
L_Toe3_02 L_Toe3_01
L_Toe3_03 L_Toe3_02
planeLockWeightLeft planeAlignerLeft
R_Leg01 R_Hip
R_Leg02 R_Leg01
R_Leg03 R_Leg02
R_Foot R_Leg03
planeAlignerRight R_Foot
R_Toe1_01 R_Foot
R_Toe2_01 R_Foot
R_Toe3_01 R_Foot
planeLockWeightRight planeAlignerRight
R_Toe1_02 R_Toe1_01
R_Toe1_03 R_Toe1_02
R_Toe2_02 R_Toe2_01
R_Toe2_03 R_Toe2_02
R_Toe3_02 R_Toe3_01
R_Toe3_03 R_Toe3_02
Rear_Leg02 Rear_Leg01
Rear_Leg03 Rear_Leg02
Rear_Leg04 Rear_Leg03
Rear_Foot Rear_Leg04
planeAlignerCenter Rear_Foot
Rear_Toe1_01 Rear_Foot
Rear_Toe2_01 Rear_Foot
Rear_Toe3_01 Rear_Foot
planeLockWeightCenter planeAlignerCenter
Rear_Toe1_02 Rear_Toe1_01
Rear_Toe1_03 Rear_Toe1_02
Rear_Toe2_02 Rear_Toe2_01
Rear_Toe2_03 Rear_Toe2_02
Rear_Toe3_02 Rear_Toe3_01
Rear_Toe3_03 Rear_Toe3_02
Back_Bone Spine1
Head Spine1
Motor_Bone Back_Bone
Ping_Mechanism Back_Bone
BN_LookIK Head
bottomMouth Head
L_Mouth01 Head
L_mouthFront Head
mouthGun Head
R_Mouth01 Head
R_mouthFront Head
TopMouth Head
weapon_bone Head
[BasePosition]
#SegmentName Tx, Ty, Tz, Rx, Ry, Rz, BoneLength
Pinger_Root 0.000000 0.000000 0.000000 -90.000000 0.000000 0.000000 10.000000 
Pelvis 0.000000 0.000000 0.000000 0.000000 0.000000 0.000000 10.000000 
L_Hip 0.000000 0.000000 0.000000 0.000000 0.000000 0.000000 10.000000 
R_Hip 0.000000 0.000000 0.000000 0.000000 0.000000 0.000000 10.000000 
Rear_Leg01 0.000000 0.000000 0.000000 0.000000 0.000000 0.000000 10.000000 
Spine1 0.000000 0.000000 0.000000 0.000000 0.000000 0.000000 10.000000 
L_Leg01 0.000000 0.000000 0.000000 0.000000 0.000000 0.000000 10.000000 
L_Leg02 0.000000 0.000000 0.000000 0.000000 0.000000 0.000000 10.000000 
L_Leg03 0.000000 0.000000 0.000000 0.000000 0.000000 0.000000 10.000000 
L_Foot 0.000000 0.000000 0.000000 0.000000 0.000000 0.000000 10.000000 
L_Toe1_01 0.000000 0.000000 0.000000 0.000000 0.000000 0.000000 10.000000 
L_Toe2_01 0.000000 0.000000 0.000000 0.000000 0.000000 0.000000 10.000000 
L_Toe3_01 0.000000 0.000000 0.000000 0.000000 0.000000 0.000000 10.000000 
planeAlignerLeft 0.000000 0.000000 0.000000 0.000000 0.000000 0.000000 10.000000 
L_Toe1_02 0.000000 0.000000 0.000000 0.000000 0.000000 0.000000 10.000000 
L_Toe1_03 0.000000 0.000000 0.000000 0.000000 0.000000 0.000000 10.000000 
L_Toe2_02 0.000000 0.000000 0.000000 0.000000 0.000000 0.000000 10.000000 
L_Toe2_03 0.000000 0.000000 0.000000 0.000000 0.000000 0.000000 10.000000 
L_Toe3_02 0.000000 0.000000 0.000000 0.000000 0.000000 0.000000 10.000000 
L_Toe3_03 0.000000 0.000000 0.000000 0.000000 0.000000 0.000000 10.000000 
planeLockWeightLeft 0.000000 0.000000 0.000000 0.000000 0.000000 0.000000 10.000000 
R_Leg01 0.000000 0.000000 0.000000 0.000000 0.000000 0.000000 10.000000 
R_Leg02 0.000000 0.000000 0.000000 0.000000 0.000000 0.000000 10.000000 
R_Leg03 0.000000 0.000000 0.000000 0.000000 0.000000 0.000000 10.000000 
R_Foot 0.000000 0.000000 0.000000 0.000000 0.000000 0.000000 10.000000 
planeAlignerRight 0.000000 0.000000 0.000000 0.000000 0.000000 0.000000 10.000000 
R_Toe1_01 0.000000 0.000000 0.000000 0.000000 0.000000 0.000000 10.000000 
R_Toe2_01 0.000000 0.000000 0.000000 0.000000 0.000000 0.000000 10.000000 
R_Toe3_01 0.000000 0.000000 0.000000 0.000000 0.000000 0.000000 10.000000 
planeLockWeightRight 0.000000 0.000000 0.000000 0.000000 0.000000 0.000000 10.000000 
R_Toe1_02 0.000000 0.000000 0.000000 0.000000 0.000000 0.000000 10.000000 
R_Toe1_03 0.000000 0.000000 0.000000 0.000000 0.000000 0.000000 10.000000 
R_Toe2_02 0.000000 0.000000 0.000000 0.000000 0.000000 0.000000 10.000000 
R_Toe2_03 0.000000 0.000000 0.000000 0.000000 0.000000 0.000000 10.000000 
R_Toe3_02 0.000000 0.000000 0.000000 0.000000 0.000000 0.000000 10.000000 
R_Toe3_03 0.000000 0.000000 0.000000 0.000000 0.000000 0.000000 10.000000 
Rear_Leg02 0.000000 0.000000 0.000000 0.000000 0.000000 0.000000 10.000000 
Rear_Leg03 0.000000 0.000000 0.000000 0.000000 0.000000 0.000000 10.000000 
Rear_Leg04 0.000000 0.000000 0.000000 0.000000 0.000000 0.000000 10.000000 
Rear_Foot 0.000000 0.000000 0.000000 0.000000 0.000000 0.000000 10.000000 
planeAlignerCenter 0.000000 0.000000 0.000000 0.000000 0.000000 0.000000 10.000000 
Rear_Toe1_01 0.000000 0.000000 0.000000 0.000000 0.000000 0.000000 10.000000 
Rear_Toe2_01 0.000000 0.000000 0.000000 0.000000 0.000000 0.000000 10.000000 
Rear_Toe3_01 0.000000 0.000000 0.000000 0.000000 0.000000 0.000000 10.000000 
planeLockWeightCenter 0.000000 0.000000 0.000000 0.000000 0.000000 0.000000 10.000000 
Rear_Toe1_02 0.000000 0.000000 0.000000 0.000000 0.000000 0.000000 10.000000 
Rear_Toe1_03 0.000000 0.000000 0.000000 0.000000 0.000000 0.000000 10.000000 
Rear_Toe2_02 0.000000 0.000000 0.000000 0.000000 0.000000 0.000000 10.000000 
Rear_Toe2_03 0.000000 0.000000 0.000000 0.000000 0.000000 0.000000 10.000000 
Rear_Toe3_02 0.000000 0.000000 0.000000 0.000000 0.000000 0.000000 10.000000 
Rear_Toe3_03 0.000000 0.000000 0.000000 0.000000 0.000000 0.000000 10.000000 
Back_Bone 0.000000 0.000000 0.000000 0.000000 0.000000 0.000000 10.000000 
Head 0.000000 0.000000 0.000000 0.000000 0.000000 0.000000 10.000000 
Motor_Bone 0.000000 0.000000 0.000000 0.000000 0.000000 0.000000 10.000000 
Ping_Mechanism 0.000000 0.000000 0.000000 0.000000 0.000000 0.000000 10.000000 
BN_LookIK 0.000000 0.000000 0.000000 0.000000 0.000000 0.000000 10.000000 
bottomMouth 0.000000 0.000000 0.000000 0.000000 0.000000 0.000000 10.000000 
L_Mouth01 0.000000 0.000000 0.000000 0.000000 0.000000 0.000000 10.000000 
L_mouthFront 0.000000 0.000000 0.000000 0.000000 0.000000 0.000000 10.000000 
mouthGun 0.000000 0.000000 0.000000 0.000000 0.000000 0.000000 10.000000 
R_Mouth01 0.000000 0.000000 0.000000 0.000000 0.000000 0.000000 10.000000 
R_mouthFront 0.000000 0.000000 0.000000 0.000000 0.000000 0.000000 10.000000 
TopMouth 0.000000 0.000000 0.000000 0.000000 0.000000 0.000000 10.000000 
weapon_bone 0.000000 0.000000 0.000000 0.000000 0.000000 0.000000 10.000000 
#Beginning of Data. Separated by tabs
#Fr	Tx	Ty	Tz	Rx	Ry	Rz	SF
[Pinger_Root]
66 -2499.999756 -0.000690 0.000000 -0.000075 -0.000000 -0.000020 2499.999756
67 -2499.999756 -0.000690 0.000000 -0.000075 -0.000000 -0.000020 2499.999756
68 -2499.999756 -0.000690 0.000000 -0.000075 -0.000000 -0.000020 2499.999756
[Pelvis]
66 -60.673401 979.180786 4266.324707 -75.216110 -70.420082 76.017014 4377.670898
67 -47.428654 976.068298 4296.606934 -75.313080 -71.589302 75.127708 4406.335449
68 -34.184010 972.955688 4326.889648 -75.355156 -72.758888 74.186760 4435.062988
[L_Hip]
66 5.766392 125.831482 872.656799 159.805878 -55.990459 117.443153 881.701050
67 5.766392 125.831482 872.656799 159.759369 -54.826866 118.006271 881.701050
68 5.766392 125.831482 872.656799 159.733459 -53.663197 118.552048 881.701050
[R_Hip]
66 5.765438 125.836372 -872.654907 36.628323 59.437809 123.578857 881.699829
67 5.765438 125.836372 -872.654907 36.879658 58.413254 123.867149 881.699829
68 5.765438 125.836372 -872.654907 37.114372 57.388000 124.139015 881.699829
[Rear_Leg01]
66 -192.298416 -925.602966 -0.001907 179.601822 4.111191 -163.153625 945.367432
67 -192.298416 -925.602966 -0.001907 178.667038 4.425059 -163.438248 945.367432
68 -192.298416 -925.602966 -0.001907 177.668884 4.640333 -163.272476 945.367432
[Spine1]
66 290.604584 5.007505 0.000477 1.196556 -4.199795 4.556895 290.647736
67 290.604584 5.007505 0.000477 1.775849 -4.103579 5.662312 290.647736
68 290.604584 5.007505 0.000477 2.356827 -4.018528 6.768538 290.647736
[L_Leg01]
66 761.932007 -0.002384 -0.069261 14.135062 -39.560120 -11.058962 761.932068
67 761.932007 -0.002384 -0.069261 14.833081 -37.150925 -11.259767 761.932068
68 761.932007 -0.002384 -0.069261 15.499860 -34.740028 -11.418833 761.932068
[L_Leg02]
66 1441.140503 -0.000954 -0.000715 2.549906 -0.099758 -123.706718 1441.140503
67 1441.140503 -0.000954 -0.000715 2.507066 -0.108580 -123.729805 1441.140503
68 1441.140503 -0.000954 -0.000715 2.463757 -0.115085 -123.783699 1441.140503
[L_Leg03]
66 1686.963989 -0.000715 -0.000954 -0.040116 0.018236 120.625252 1686.963989
67 1686.963989 -0.000715 -0.000954 -0.038654 0.017747 120.389229 1686.963989
68 1686.963989 -0.000715 -0.000954 -0.037189 0.017263 120.153236 1686.963989
[L_Foot]
66 3041.570068 -30.715107 11.297464 3.999100 10.693110 48.503574 3041.746094
67 3041.570068 -30.715107 11.297464 3.879539 10.982686 49.291821 3041.746094
68 3041.570068 -30.715107 11.297464 3.763959 11.273783 50.080048 3041.746094
[L_Toe1_01]
66 -188.216690 -224.732346 -21.137953 92.595985 -5.788540 -171.635620 293.899567
67 -188.216690 -224.732346 -21.137953 92.742668 -5.902099 -171.883972 293.899567
68 -188.216690 -224.732346 -21.137953 92.889847 -6.015023 -172.132660 293.899567
[L_Toe2_01]
66 200.746536 -219.926590 148.838394 -87.698090 -23.128574 -46.651905 332.896027
67 200.746536 -219.926590 148.838394 -88.049599 -23.544907 -47.159855 332.896027
68 200.746536 -219.926590 148.838394 -88.283531 -23.838392 -47.704731 332.896027
[L_Toe3_01]
66 188.832520 -219.859131 -191.078659 -101.918373 18.752457 -57.965691 347.140900
67 188.832520 -219.859131 -191.078659 -101.696022 18.227768 -58.901878 347.140900
68 188.832520 -219.859131 -191.078659 -101.465424 17.706718 -59.837265 347.140900
[planeAlignerLeft]
66 55.874428 -544.217896 64.501579 169.400360 -80.350967 92.989845 550.867981
67 54.093597 -548.282593 68.202003 169.357193 -79.890877 92.675949 555.149902
68 52.312775 -552.347290 71.902412 169.302170 -79.430870 92.373650 559.458801
[L_Toe1_02]
66 413.761139 0.000477 0.000000 0.001384 -25.923368 0.001384 413.761139
67 413.761139 0.000477 0.000000 0.001384 -25.929337 0.001384 413.761139
68 413.761139 0.000477 0.000000 0.001384 -25.935308 0.001384 413.761139
[L_Toe1_03]
66 464.317322 0.000358 -0.000089 0.004112 56.833546 0.004112 464.317322
67 464.317322 0.000358 -0.000089 0.004092 56.669540 0.004092 464.317322
68 464.317322 0.000358 -0.000089 0.004073 56.505535 0.004073 464.317322
[L_Toe2_02]
66 342.235809 -0.000477 0.000238 0.001185 -74.331619 0.001185 342.235809
67 342.235809 -0.000477 0.000238 0.001185 -74.180008 0.001185 342.235809
68 342.235809 -0.000477 0.000238 0.001185 -74.028397 0.001185 342.235809
[L_Toe2_03]
66 420.210846 -0.000715 0.000000 -179.907822 89.298073 -179.904327 420.210846
67 420.210846 -0.000715 0.000000 0.000000 89.777069 0.003500 420.210846
68 420.210846 -0.000715 0.000000 0.000000 89.747437 0.003496 420.210846
[L_Toe3_02]
66 329.270111 0.000954 0.000000 0.001730 -82.117310 0.001730 329.270111
67 329.270111 0.000954 0.000000 0.001545 -82.018715 0.001545 329.270111
68 329.270111 0.000954 0.000000 0.001361 -81.920273 0.001361 329.270111
[L_Toe3_03]
66 439.137451 -0.001907 0.000954 -179.998337 70.728119 -179.994781 439.137451
67 439.137451 -0.001907 0.000954 -179.998215 71.398659 -179.994675 439.137451
68 439.137451 -0.001907 0.000954 -179.998077 72.069397 -179.994537 439.137451
[planeLockWeightLeft]
66 1000.000366 0.000000 -0.000183 -0.011826 -0.004376 0.005620 1000.000366
67 1000.000366 0.000000 -0.000194 -0.011826 -0.004376 0.005620 1000.000366
68 1000.000488 0.000000 -0.000205 -0.011826 -0.004376 0.005620 1000.000488
[R_Leg01]
66 761.455627 -0.001907 -0.000358 139.269348 -8.241286 29.101267 761.455688
67 761.455627 -0.001907 -0.000358 137.745483 -8.359205 28.878260 761.455688
68 761.455627 -0.001907 -0.000358 135.937408 -8.254001 29.105099 761.455688
[R_Leg02]
66 1441.140625 0.000000 -0.000238 -2.222927 -0.876555 -120.318672 1441.140625
67 1441.140625 0.000000 -0.000238 -2.131854 -0.784050 -119.778458 1441.140625
68 1441.140625 0.000000 -0.000238 -2.039913 -0.692405 -119.238098 1441.140625
[R_Leg03]
66 1686.963989 0.000954 0.001431 0.121292 -0.075593 142.632645 1686.963989
67 1686.963989 0.000954 0.001431 0.116680 -0.071789 141.481216 1686.963989
68 1686.963989 0.000954 0.001431 0.111991 -0.068075 140.329178 1686.963989
[R_Foot]
66 3041.560059 -30.531288 -11.204481 1.730541 -13.290252 52.144978 3041.734131
67 3041.560059 -30.531288 -11.204481 1.434317 -13.971504 52.332676 3041.734131
68 3041.560059 -30.531288 -11.204481 1.134915 -14.651732 52.524559 3041.734131
[planeAlignerRight]
66 -127.138435 -574.034668 -312.900208 -36.587143 -71.457870 -64.273407 666.022949
67 -127.139122 -574.033630 -312.900391 -36.586483 -71.449944 -64.278122 666.022217
68 -127.139809 -574.032532 -312.900543 -36.585770 -71.442001 -64.282837 666.021545
[R_Toe1_01]
66 -188.383347 -224.864899 21.052242 75.621277 -0.548147 -172.608795 294.101532
67 -188.383347 -224.864899 21.052242 75.731674 -0.530568 -172.642441 294.101532
68 -188.383347 -224.864899 21.052242 75.842056 -0.512924 -172.676056 294.101532
[R_Toe2_01]
66 200.637817 -220.002121 -148.787384 -94.438095 31.995380 -59.130730 332.857574
67 200.637817 -220.002121 -148.787384 -94.196358 32.074287 -59.137432 332.857574
68 200.637817 -220.002121 -148.787384 -93.954384 32.153214 -59.143723 332.857574
[R_Toe3_01]
66 188.606735 -220.092957 191.126343 -71.201393 -7.950531 -73.540024 347.192566
67 188.606735 -220.092957 191.126343 -71.390411 -7.989236 -73.560951 347.192566
68 188.606735 -220.092957 191.126343 -71.579437 -8.028017 -73.581795 347.192566
[planeLockWeightRight]
66 999.999634 0.000388 -0.000487 -0.011823 -0.004379 -0.000027 999.999634
67 999.999634 0.000383 -0.000496 -0.011823 -0.004379 -0.000027 999.999634
68 999.999634 0.000377 -0.000505 -0.011823 -0.004379 -0.000027 999.999634
[R_Toe1_02]
66 413.762085 0.000477 -0.000119 0.001394 -24.667917 0.001394 413.762085
67 413.762085 0.000477 -0.000119 0.001394 -24.667353 0.001394 413.762085
68 413.762085 0.000477 -0.000119 0.001394 -24.666792 0.001394 413.762085
[R_Toe1_03]
66 464.317810 0.000000 0.001088 0.006611 69.548210 0.006611 464.317810
67 464.317810 0.000000 0.001088 0.006612 69.551224 0.006612 464.317810
68 464.317810 0.000000 0.001088 0.006613 69.554214 0.006613 464.317810
[R_Toe2_02]
66 342.234741 -0.000954 0.000238 0.001197 -67.215675 0.001197 342.234741
67 342.234741 -0.000954 0.000238 0.001197 -67.216057 0.001197 342.234741
68 342.234741 -0.000954 0.000238 0.001197 -67.216423 0.001197 342.234741
[R_Toe2_03]
66 420.210846 0.000715 -0.000268 0.008160 73.461174 0.008160 420.210846
67 420.210846 0.000715 -0.000268 0.008172 73.485283 0.008172 420.210846
68 420.210846 0.000715 -0.000268 0.008184 73.509422 0.008184 420.210846
[R_Toe3_02]
66 329.270355 -0.000477 -0.000954 0.001185 -74.446144 0.001185 329.270355
67 329.270355 -0.000477 -0.000954 0.001184 -74.450989 0.001184 329.270355
68 329.270355 -0.000477 -0.000954 0.001184 -74.455864 0.001184 329.270355
[R_Toe3_03]
66 439.137939 0.000238 0.001431 -0.011343 83.129539 -0.007840 439.137939
67 439.137939 0.000238 0.001431 -0.011359 83.140823 -0.007856 439.137939
68 439.137939 0.000238 0.001431 -0.011375 83.152214 -0.007872 439.137939
[Rear_Leg02]
66 1162.777710 -0.029802 0.005960 -0.025203 -1.048987 -92.978195 1162.777710
67 1162.777710 -0.029802 0.005960 -0.050054 -1.362523 -94.619614 1162.777710
68 1162.777710 -0.029802 0.005960 -0.065913 -1.676627 -96.261147 1162.777710
[Rear_Leg03]
66 607.192505 -0.013351 -0.073195 0.006574 -0.001778 58.475586 607.192505
67 607.192505 -0.013351 -0.073195 0.006577 -0.001765 58.250641 607.192505
68 607.192505 -0.013351 -0.073195 0.006574 -0.001779 58.496399 607.192505
[Rear_Leg04]
66 995.874512 -0.020504 -0.011921 -0.037892 -0.016698 47.277042 995.874573
67 995.874512 -0.020504 -0.011921 -0.036869 -0.014514 47.023304 995.874573
68 995.874512 -0.020504 -0.011921 -0.037904 -0.016672 47.355408 995.874573
[Rear_Foot]
66 3096.176270 -0.067472 -0.041425 -158.722214 87.471756 35.380867 3096.176270
67 3096.176270 -0.067472 -0.041425 -155.831451 87.307976 38.298321 3096.176270
68 3096.176270 -0.067472 -0.041425 -153.280426 87.137207 40.875347 3096.176270
[planeAlignerCenter]
66 -6.786250 -94.574387 -551.525574 8.969522 -0.001525 179.998215 559.616699
67 -6.936381 -103.032394 -566.581421 9.354353 -0.001519 179.998215 575.915222
68 -7.086511 -111.490341 -581.637207 9.739109 -0.001513 179.998199 592.268677
[Rear_Toe1_01]
66 0.653352 83.966492 -371.173737 0.423752 19.310219 90.846916 380.553192
67 0.653352 83.966492 -371.173737 0.444164 20.673349 90.856674 380.553192
68 0.653352 83.966492 -371.173737 0.465030 22.037237 90.867050 380.553192
[Rear_Toe2_01]
66 178.200760 -294.826019 -362.060547 -5.950440 24.968107 -67.959946 499.765686
67 178.200760 -294.826019 -362.060547 -6.199569 25.030373 -68.210030 499.765686
68 178.200760 -294.826019 -362.060547 -6.449118 25.091646 -68.460526 499.765686
[Rear_Toe3_01]
66 -153.359680 -308.780914 -362.060852 2.804250 23.469942 -111.495560 499.952881
67 -153.359680 -308.780914 -362.060852 2.904808 23.387613 -111.347755 499.952881
68 -153.359680 -308.780914 -362.060852 3.005075 23.305050 -111.200203 499.952881
[planeLockWeightCenter]
66 1000.000244 0.000610 -0.000114 -0.011814 -0.004373 -0.000015 1000.000244
67 1000.000244 0.000610 -0.000111 -0.011814 -0.004373 -0.000015 1000.000244
68 1000.000244 0.000610 -0.000108 -0.011814 -0.004373 -0.000015 1000.000244
[Rear_Toe1_02]
66 379.707825 0.194073 0.000477 -0.002650 -32.440941 -0.002650 379.707855
67 379.707825 0.194073 0.000477 -0.002651 -32.388130 -0.002651 379.707855
68 379.707825 0.194073 0.000477 -0.002652 -32.335312 -0.002652 379.707855
[Rear_Toe1_03]
66 500.129700 0.165701 0.000119 -179.982620 85.786713 -179.986115 500.129761
67 500.129700 0.165701 0.000119 -179.981873 85.976250 -179.985382 500.129761
68 500.129700 0.165701 0.000119 -179.981079 86.165642 -179.984573 500.129761
[Rear_Toe2_02]
66 340.494507 0.000238 -0.000954 0.001211 -61.783665 0.001211 340.494507
67 340.494507 0.000238 -0.000954 0.001215 -60.422039 0.001215 340.494507
68 340.494507 0.000238 -0.000954 0.001219 -59.060230 0.001219 340.494507
[Rear_Toe2_03]
66 433.103577 0.000000 0.000238 0.004328 58.515347 0.004328 433.103546
67 433.103577 0.000000 0.000238 0.004106 56.758892 0.004106 433.103546
68 433.103577 0.000000 0.000238 0.003906 55.002068 0.003906 433.103546
[Rear_Toe3_02]
66 340.494141 -0.000358 -0.000477 -0.002429 -56.354469 -0.002429 340.494171
67 340.494141 -0.000358 -0.000477 -0.002441 -54.733406 -0.002441 340.494171
68 340.494141 -0.000358 -0.000477 -0.002452 -53.112003 -0.002452 340.494171
[Rear_Toe3_03]
66 433.103577 0.001431 -0.000238 0.000100 51.682629 -0.003602 433.103546
67 433.103577 0.001431 -0.000238 0.000190 49.786121 -0.003535 433.103546
68 433.103577 0.001431 -0.000238 0.000274 47.888569 -0.003475 433.103546
[Back_Bone]
66 1312.175781 -701.934692 0.000954 0.874203 -1.827390 -86.376350 1488.125488
67 1312.175781 -701.934692 0.000954 0.917308 -1.695264 -86.300018 1488.125488
68 1312.175781 -701.934692 0.000954 0.960586 -1.563197 -86.223572 1488.125488
[Head]
66 1406.159424 809.709290 0.001431 -3.970320 -0.139792 5.263570 1622.625488
67 1406.159424 809.709290 0.001431 -3.639192 -0.255762 5.492382 1622.625488
68 1406.159424 809.709290 0.001431 -3.308520 -0.373054 5.720527 1622.625488
[Motor_Bone]
66 1158.364380 -417.834747 0.000477 -0.583240 2.827894 -103.156105 1231.419434
67 1158.364380 -417.834747 0.000477 0.001230 -0.033888 -106.020905 1231.419434
68 1158.364380 -417.834747 0.000477 2.853603 -2.893620 -108.875916 1231.419434
[Ping_Mechanism]
66 1307.032593 -459.506836 25.954573 0.000103 -0.000053 82.120995 1385.696411
67 1301.050171 -458.754883 25.479214 0.000103 -0.000053 82.120995 1379.795898
68 1295.067749 -458.002960 25.003838 0.000103 -0.000053 82.120995 1373.896729
[BN_LookIK]
66 193.241119 1380.371704 -0.002861 0.000000 89.965736 -31.038179 1393.832153
67 193.241119 1380.371704 -0.002861 0.000000 89.965736 -31.038179 1393.832153
68 193.241119 1380.371704 -0.002861 0.000000 89.965736 -31.038179 1393.832153
[bottomMouth]
66 -435.092926 615.759399 -0.000954 -0.000022 0.000016 73.527184 753.966492
67 -435.092926 615.759399 -0.000954 -0.000022 0.000016 73.527184 753.966492
68 -435.092926 615.759399 -0.000954 -0.000022 0.000016 73.527184 753.966492
[L_Mouth01]
66 554.440979 7.658243 838.222046 150.204178 23.759130 109.605339 1005.027161
67 554.440979 7.658243 838.222046 150.204178 23.759130 109.605339 1005.027161
68 554.440979 7.658243 838.222046 150.204178 23.759130 109.605339 1005.027161
[L_mouthFront]
66 551.629089 934.514771 339.150421 0.000081 2.804060 79.119301 1136.941284
67 551.629089 934.514771 339.150421 0.000081 2.804060 79.119301 1136.941284
68 551.629089 934.514771 339.150421 0.000081 2.804060 79.119301 1136.941284
[mouthGun]
66 55.332661 1627.420898 0.000000 0.000023 0.000009 -11.038128 1628.361328
67 55.332661 1627.420898 0.000000 0.000023 0.000009 -11.038128 1628.361328
68 55.332661 1627.420898 0.000000 0.000023 0.000009 -11.038128 1628.361328
[R_Mouth01]
66 554.442383 7.659197 -838.223938 29.795891 -23.759109 109.605331 1005.029541
67 554.442383 7.659197 -838.223938 29.795891 -23.759109 109.605331 1005.029541
68 554.442383 7.659197 -838.223938 29.795891 -23.759109 109.605331 1005.029541
[R_mouthFront]
66 551.629089 934.514282 -339.151367 0.000029 -2.803930 79.119133 1136.941162
67 551.629089 934.514282 -339.151367 0.000029 -2.803930 79.119133 1136.941162
68 551.629089 934.514282 -339.151367 0.000029 -2.803930 79.119133 1136.941162
[TopMouth]
66 461.269867 -56.106091 -0.008583 -0.000059 -0.000268 92.025169 464.669525
67 461.269867 -56.106091 -0.008583 -0.000059 -0.000268 92.025169 464.669525
68 461.269867 -56.106091 -0.008583 -0.000059 -0.000268 92.025169 464.669525
[weapon_bone]
66 -987.239868 1448.372803 0.001431 0.000000 89.965736 -31.038221 1752.833740
67 -987.239868 1448.372803 0.001431 0.000000 89.965736 -31.038221 1752.833740
68 -987.239868 1448.372803 0.001431 0.000000 89.965736 -31.038221 1752.833740
